<?xml version="1.0" encoding="utf-8"?>
<!-- Generator: Adobe Illustrator 17.1.0, SVG Export Plug-In . SVG Version: 6.00 Build 0)  -->
<!DOCTYPE svg PUBLIC "-//W3C//DTD SVG 1.1//EN" "http://www.w3.org/Graphics/SVG/1.1/DTD/svg11.dtd">
<svg version="1.1" id="Layer_1" xmlns="http://www.w3.org/2000/svg" xmlns:xlink="http://www.w3.org/1999/xlink" x="0px" y="0px"
	 viewBox="0 0 459.8 79.8" enable-background="new 0 0 459.8 79.8" xml:space="preserve">
<g>
	<path fill="#FFFFFF" d="M44.5,21.7c-3.6-3-8.1-5-12.9-5c-3.6,0-8.3,2.1-8.3,6.3c0,4.4,5.3,6.1,8.6,7.1l5,1.5
		c10.4,3.1,18.5,8.3,18.5,20.4c0,7.4-1.8,15.1-7.7,20.2c-5.9,5-13.7,7-21.2,7c-9.4,0-18.7-3.2-26.3-8.5l8.3-15.7
		c4.9,4.3,10.6,7.7,17.3,7.7c4.6,0,9.4-2.3,9.4-7.5c0-5.5-7.6-7.3-11.8-8.5C11,43.3,3,40.1,3,25.6C3,10.4,13.8,0.5,28.8,0.5
		c7.5,0,16.8,2.4,23.4,6.2L44.5,21.7z"/>
	<path fill="#FFFFFF" d="M91.8,19v12.5h21.9v16.5H91.8v12.9H115v16.5H72.4V2.5H115V19H91.8z"/>
	<path fill="#FFFFFF" d="M129.4,2.5H157c20.8,0,38,16.4,38,37.4c0,21-17.3,37.4-38,37.4h-27.6V2.5z M148.9,60.8h4.4
		c11.6,0,21.5-6.4,21.5-20.9c0-13.4-8.8-20.9-21.3-20.9h-4.6V60.8z"/>
	<path fill="#FFFFFF" d="M286.9,38.5c0,24.2-17.4,41.3-41.4,41.3s-41.4-17.1-41.4-41.3c0-22.6,19.9-38.5,41.4-38.5
		S286.9,15.9,286.9,38.5z M224.3,38.6c0,12.9,9.5,22.3,21.1,22.3c11.6,0,21.1-9.4,21.1-22.3c0-10.3-9.5-19.8-21.1-19.8
		S224.3,28.3,224.3,38.6z"/>
	<path fill="#FFFFFF" d="M297.2,2.5h19.5l35.6,45.8h0.2V2.5H372v74.8h-19.5l-35.6-45.9h-0.2v45.9h-19.5V2.5z"/>
	<path fill="#FFFFFF" d="M407.3,64.3l-5.2,13h-20.6l28.8-74.8h21.2l28.2,74.8H439l-4.9-13H407.3z M420.9,25.6h-0.2l-8,23.8h16.2
		L420.9,25.6z"/>
</g>
</svg>
